<svg width="76" height="76" viewBox="0 0 76 76" fill="none" xmlns="http://www.w3.org/2000/svg">
<path fill-rule="evenodd" clip-rule="evenodd" d="M38 72C56.7777 72 72 56.7777 72 38C72 19.2223 56.7777 4 38 4C19.2223 4 4 19.2223 4 38C4 56.7777 19.2223 72 38 72ZM62 38C62 51.2548 51.2548 62 38 62C24.7452 62 14 51.2548 14 38C14 24.7452 24.7452 14 38 14C51.2548 14 62 24.7452 62 38ZM76 38C76 58.9868 58.9868 76 38 76C17.0132 76 0 58.9868 0 38C0 17.0132 17.0132 0 38 0C58.9868 0 76 17.0132 76 38ZM58 38C58 49.0457 49.0457 58 38 58C26.9543 58 18 49.0457 18 38C18 26.9543 26.9543 18 38 18C49.0457 18 58 26.9543 58 38Z" fill="black"/>
</svg>
