<svg width="266" height="213" viewBox="0 0 266 213" fill="none" xmlns="http://www.w3.org/2000/svg">
<path d="M223.44 94.2691C225.144 89.8178 226.1 84.9504 226.1 79.875C226.1 57.8262 208.228 39.9375 186.2 39.9375C178.012 39.9375 170.365 42.4336 164.047 46.677C152.534 26.7082 131.047 13.3125 106.4 13.3125C69.6588 13.3125 39.9 43.0992 39.9 79.875C39.9 80.9982 39.9416 82.1215 39.9831 83.2447C16.7081 91.4402 0 113.655 0 139.781C0 172.854 26.8078 199.688 59.85 199.688H212.8C242.185 199.688 266 175.85 266 146.438C266 120.686 247.712 99.1781 223.44 94.2691Z" fill="#A4D9FF"/>
</svg>
