<svg width="264" height="264" viewBox="0 0 264 264" fill="none" xmlns="http://www.w3.org/2000/svg">
<g clip-path="url(#clip0)">
<path d="M94.8229 190.833C90.9042 188.564 85.8511 189.905 83.5823 193.927L50.5823 251.677C48.3136 255.647 49.7058 260.7 53.6761 262.917C54.9651 263.639 56.3573 264 57.7495 264C60.5854 264 63.3698 262.505 64.9167 259.823L97.9167 202.073C100.185 198.155 98.7933 193.102 94.8229 190.833ZM144.323 190.833C140.404 188.564 135.351 189.905 133.082 193.927L100.082 251.677C97.8136 255.647 99.2058 260.7 103.176 262.917C104.465 263.639 105.857 264 107.25 264C110.085 264 112.87 262.505 114.417 259.823L147.417 202.073C149.685 198.155 148.293 193.102 144.323 190.833ZM45.3229 190.833C41.4042 188.564 36.3511 189.905 34.0823 193.927L1.08231 251.677C-1.18644 255.647 0.205747 260.7 4.17606 262.917C5.46512 263.639 6.85731 264 8.2495 264C11.0854 264 13.8698 262.505 15.4167 259.823L48.4167 202.073C50.6854 198.155 49.2933 193.102 45.3229 190.833ZM243.323 190.833C239.404 188.564 234.351 189.905 232.082 193.927L199.082 251.677C196.814 255.647 198.206 260.7 202.176 262.917C203.465 263.639 204.857 264 206.25 264C209.085 264 211.87 262.505 213.417 259.823L246.417 202.073C248.685 198.155 247.293 193.102 243.323 190.833ZM193.823 190.833C189.904 188.564 184.851 189.905 182.582 193.927L149.582 251.677C147.314 255.647 148.706 260.7 152.676 262.917C153.965 263.639 155.357 264 156.75 264C159.585 264 162.37 262.505 163.917 259.823L196.917 202.073C199.185 198.155 197.793 193.102 193.823 190.833ZM214.5 66C214.19 66 213.932 66.1031 213.675 66.1031C214.242 63.4219 214.5 60.6375 214.5 57.75C214.5 34.9594 196.04 16.5 173.25 16.5C160.565 16.5 149.376 22.3266 141.796 31.35C132.206 12.7875 113.076 0 90.7495 0C58.8839 0 32.9995 25.8328 32.9995 57.75C32.9995 61.5141 33.412 65.1234 34.0823 68.6813C14.3339 75.1781 -0.000503049 93.5859 -0.000503049 115.5C-0.000503049 142.828 22.1714 165 49.4995 165H214.5C241.828 165 264 142.828 264 115.5C264 88.1719 241.828 66 214.5 66Z" fill="#A4D9FF"/>
</g>
<defs>
<clipPath id="clip0">
<rect width="264" height="264" fill="white"/>
</clipPath>
</defs>
</svg>
