<svg width="84" height="84" viewBox="0 0 84 84" fill="none" xmlns="http://www.w3.org/2000/svg">
<path d="M81.1875 42C81.1875 63.6475 63.6412 81.1875 42 81.1875C20.3588 81.1875 2.8125 63.6475 2.8125 42C2.8125 20.3653 20.3591 2.8125 42 2.8125C63.6409 2.8125 81.1875 20.3653 81.1875 42ZM42.9266 48.75H45.9823C47.8244 48.75 49.3455 47.3099 49.4459 45.4702L50.6629 23.1577C50.7713 21.1708 49.1893 19.5 47.1993 19.5H36.8005C34.8104 19.5 33.2287 21.171 33.3371 23.1577L34.5541 45.4702C34.6545 47.3099 36.1756 48.75 38.0177 48.75H41.0734C36.5122 49.2141 32.9531 53.0664 32.9531 57.75C32.9531 62.7464 37.0036 66.7969 42 66.7969C46.9964 66.7969 51.0469 62.7464 51.0469 57.75C51.0469 53.0664 47.4878 49.2141 42.9266 48.75Z" stroke="black" stroke-width="3"/>
</svg>
