<svg width="287" height="287" viewBox="0 0 287 287" fill="none" xmlns="http://www.w3.org/2000/svg">
<g clip-path="url(#clip0)">
<path d="M282.067 193.501L260.414 182.57L277.07 178.646C282.323 177.413 285.462 172.648 284.053 168.052L281.49 159.7C280.081 155.103 274.636 152.357 269.383 153.59L224.026 164.24L183.09 143.5L223.962 122.816L269.319 133.466C274.572 134.699 280.017 131.953 281.426 127.356L283.989 119.004C285.398 114.408 282.259 109.643 277.006 108.41L260.35 104.486L282.003 93.5553C286.744 91.1449 288.345 85.8758 285.654 81.7277L275.725 66.7051C272.97 62.557 266.948 61.1557 262.208 63.51L240.554 74.4406L245.039 59.8664C246.448 55.2699 243.309 50.5053 238.056 49.2721L228.511 47.0299C223.258 45.7967 217.812 48.5434 216.403 53.1398L204.231 92.8266L164 113.118V69.676L198.401 39.5746C202.373 36.0992 202.373 30.3816 198.401 26.9062L191.162 20.5721C187.19 17.0967 180.656 17.0967 176.684 20.5721L164 31.6148V8.96875C164 4.03594 159.387 0 153.75 0H133.25C127.612 0 123 4.03594 123 8.96875V31.6148L110.379 20.5721C106.408 17.0967 99.8732 17.0967 95.9014 20.5721L88.5982 26.9062C84.5623 30.3816 84.5623 36.0992 88.5982 39.5746L123 69.676V113.118L82.7685 92.8266L70.5967 53.1398C69.1873 48.5434 63.742 45.7967 58.4889 47.0299L48.9435 49.2721C43.6904 50.5053 40.5514 55.2699 41.9607 59.8664L46.4451 74.4406L24.792 63.51C20.0514 61.0996 14.0295 62.557 11.2748 66.7051L1.34511 81.6717C-1.40958 85.8197 0.256042 91.0889 4.99667 93.4992L26.6498 104.43L9.99354 108.354C4.67636 109.587 1.53729 114.352 2.94667 119.004L5.50917 127.356C6.91854 131.953 12.3639 134.699 17.617 133.466L62.9732 122.816L103.845 143.5L62.9732 164.184L17.617 153.534C12.3639 152.301 6.91854 155.047 5.50917 159.644L2.94667 167.996C1.53729 172.592 4.67636 177.357 9.92948 178.59L26.5857 182.514L4.93261 193.501C0.19198 195.911 -1.40958 201.18 1.28104 205.328L11.2107 220.351C13.9654 224.499 19.9873 225.9 24.7279 223.546L46.381 212.615L41.8967 227.19C40.4873 231.786 43.6264 236.551 48.8795 237.784L58.4248 240.026C63.6779 241.259 69.1232 238.513 70.5326 233.916L82.7045 194.229L122.936 173.938V217.38L88.5342 247.481C84.4982 250.957 84.4982 256.674 88.5342 260.15L95.7732 266.484C99.7451 269.959 106.279 269.959 110.251 266.484L122.872 255.441V278.031C122.872 282.964 127.484 287 133.122 287H153.622C159.259 287 163.872 282.964 163.872 278.031V255.385L176.492 266.428C180.464 269.903 186.998 269.903 190.97 266.428L198.209 260.094C202.181 256.618 202.181 250.901 198.209 247.425L164 217.324V173.882L204.231 194.173L216.403 233.86C217.812 238.457 223.258 241.203 228.511 239.97L238.056 237.728C243.309 236.495 246.448 231.73 245.039 227.134L240.554 212.559L262.208 223.49C266.948 225.9 272.97 224.443 275.725 220.295L285.654 205.272C288.409 201.18 286.808 195.855 282.067 193.501V193.501Z" fill="#73C4FF"/>
</g>
<defs>
<clipPath id="clip0">
<rect width="287" height="287" fill="white"/>
</clipPath>
</defs>
</svg>
