<svg width="284" height="284" viewBox="0 0 284 284" fill="none" xmlns="http://www.w3.org/2000/svg">
<g clip-path="url(#clip0)">
<path d="M142 88.75C112.657 88.75 88.75 112.657 88.75 142C88.75 171.343 112.657 195.25 142 195.25C171.343 195.25 195.25 171.343 195.25 142C195.25 112.657 171.343 88.75 142 88.75ZM278.675 133.402L226.146 107.166L244.728 51.475C247.224 43.9313 240.069 36.7758 232.58 39.3273L176.89 57.9094L150.598 5.325C147.048 -1.775 136.952 -1.775 133.402 5.325L107.166 57.8539L51.4195 39.2719C43.8758 36.7758 36.7203 43.9312 39.2719 51.4195L57.8539 107.11L5.325 133.402C-1.775 136.952 -1.775 147.048 5.325 150.598L57.8539 176.834L39.2719 232.58C36.7758 240.124 43.9312 247.28 51.4195 244.728L107.11 226.146L133.347 278.675C136.897 285.775 146.992 285.775 150.542 278.675L176.779 226.146L232.47 244.728C240.013 247.224 247.169 240.069 244.617 232.58L226.035 176.89L278.564 150.653C285.775 147.048 285.775 136.952 278.675 133.402V133.402ZM192.199 192.199C164.52 219.878 119.48 219.878 91.8008 192.199C64.1219 164.52 64.1219 119.48 91.8008 91.8008C119.48 64.1219 164.52 64.1219 192.199 91.8008C219.878 119.48 219.878 164.52 192.199 192.199Z" fill="#FFC700"/>
</g>
<defs>
<clipPath id="clip0">
<rect width="284" height="284" fill="white"/>
</clipPath>
</defs>
</svg>
